HIERARCHY
ROOT Hips
{
	OFFSET 0.00000 0.00000 0.00000
	CHANNELS 6 Xposition Yposition Zposition Zrotation Yrotation Xrotation 
	JOINT LHipJoint
	{
		OFFSET 0 0 0
		CHANNELS 3 Zrotation Yrotation Xrotation
		JOINT LeftHip
		{
			OFFSET 1.38615 -1.80049 0.80104
			CHANNELS 3 Zrotation Yrotation Xrotation
			JOINT LeftKnee
			{
				OFFSET 2.50172 -6.87341 0.00000
				CHANNELS 3 Zrotation Yrotation Xrotation
				JOINT LeftAnkle
				{
					OFFSET 2.67523 -7.35014 0.00000
					CHANNELS 3 Zrotation Yrotation Xrotation
					JOINT LeftToe
					{
						OFFSET 0.17446 -0.47932 2.13155
						CHANNELS 3 Zrotation Yrotation Xrotation
						End Site
						{
							OFFSET 0.00000 -0.00000 1.10023
						}
					}
				}
			}
		}
	}
	JOINT RHipJoint
	{
		OFFSET 0 0 0
		CHANNELS 3 Zrotation Yrotation Xrotation
		JOINT RightHip
		{
			OFFSET -1.18047 -1.80049 0.80104
			CHANNELS 3 Zrotation Yrotation Xrotation
			JOINT RightKnee
			{
				OFFSET -2.59789 -7.13765 0.00000
				CHANNELS 3 Zrotation Yrotation Xrotation
				JOINT RightAnkle
				{
					OFFSET -2.62125 -7.20183 0.00000
					CHANNELS 3 Zrotation Yrotation Xrotation
					JOINT RightToe
					{
						OFFSET -0.31287 -0.85960 2.07814
						CHANNELS 3 Zrotation Yrotation Xrotation
						End Site
						{
							OFFSET -0.00000 -0.00000 1.11766
						}
					}
				}
			}
		}
	}
	JOINT lowerback
	{
		OFFSET 0 0 0
		CHANNELS 3 Zrotation Yrotation Xrotation
		JOINT Chest
		{
			OFFSET -0.01587 2.16157 -0.12309
			CHANNELS 3 Zrotation Yrotation Xrotation
			JOINT Chest2
			{
				OFFSET 0.04727 2.16674 -0.03569
				CHANNELS 3 Zrotation Yrotation Xrotation
				JOINT lowerneck
				{
					OFFSET 0 0 0
					CHANNELS 3 Zrotation Yrotation Xrotation
					JOINT Neck
					{
						OFFSET -0.08586 1.60335 0.32783
						CHANNELS 3 Zrotation Yrotation Xrotation
						JOINT Head
						{
							OFFSET 0.07583 1.65857 -0.31618
							CHANNELS 3 Zrotation Yrotation Xrotation
							End Site
							{
								OFFSET 0.03386 1.69434 -0.14584
							}
						}
					}
				}
				JOINT LeftCollar
				{
					OFFSET 0 0 0
					CHANNELS 3 Zrotation Yrotation Xrotation
					JOINT LeftShoulder
					{
						OFFSET 3.17393 1.01901 -0.52897
CHANNELS 3 Zrotation Xrotation Yrotation
						JOINT LeftElbow
						{
OFFSET 0 -5.252870 -0.000000
CHANNELS 3 Zrotation Xrotation Yrotation
							JOINT LeftWrist
							{
OFFSET 0 -3.510140 0.000000
CHANNELS 3 Zrotation Xrotation Yrotation
								JOINT lhand
								{
									OFFSET 0 0 0
CHANNELS 3 Zrotation Xrotation Yrotation
									JOINT LFingers
									{
OFFSET 0 -0.706180 -0.000000
CHANNELS 3 Zrotation Xrotation Yrotation
										End Site
										{
OFFSET 0 -0.569340 -0.000000
										}
									}
								}
								JOINT LThumb
								{
OFFSET 0 0.000000 0.000000
CHANNELS 3 Zrotation Xrotation Yrotation
									End Site
									{
OFFSET 0 -0.578030 0.578030
									}
								}
							}
						}
					}
				}
				JOINT RightCollar
				{
					OFFSET 0 0 0
					CHANNELS 3 Zrotation Yrotation Xrotation
					JOINT RightShoulder
					{
						OFFSET -2.99471 1.26495 -0.61125
CHANNELS 3 Zrotation Xrotation Yrotation
						JOINT RightElbow
						{
OFFSET 0 -5.287210 -0.000000
CHANNELS 3 Zrotation Xrotation Yrotation
							JOINT RightWrist
							{
OFFSET 0 -3.505440 0.000000
CHANNELS 3 Zrotation Xrotation Yrotation
								JOINT rhand
								{
									OFFSET 0 0 0
CHANNELS 3 Zrotation Xrotation Yrotation
									JOINT RFingers
									{
OFFSET 0 -0.885000 -0.000000
CHANNELS 3 Zrotation Xrotation Yrotation
										End Site
										{
OFFSET 0 -0.713510 -0.000000
										}
									}
								}
								JOINT RThumb
								{
OFFSET 0 0.000000 0.000000
CHANNELS 3 Zrotation Xrotation Yrotation
									End Site
									{
OFFSET 0 -0.724400 0.724400
									}
								}
							}
						}
					}
				}
			}
		}
	}
}
MOTION
Frames: 16
Frame Time: .0083333
17.5467 13.0537 9.8559 133.9170 -85.8503 -157.1210 0.0000 0.0000 0.0000 -8.5032 -2.1412 -48.7789 13.3784 18.9146 70.2968 -0.1772 -7.4742 1.9798 0.0347 -1.2021 -3.3051 0.0000 0.0000 0.0000 3.6805 8.9677 -47.1326 -11.8740 -18.3369 65.5888 -0.0260 -1.2747 2.8683 -0.1705 2.6599 -7.3332 -0.8054 4.2238 27.4522 2.0243 3.7228 14.5878 1.6962 1.0645 0.9667 -3.6809 6.7984 -21.6974 -4.8904 11.4217 16.2203 0.4745 4.5383 8.7350 0.0000 -0.0000 0.0000 0.6045 -25.6957 -56.1458 41.8255 -49.115 19.8085 16.7663 25.7253 -30.745 0.0 0.0 0.0 -7.1250 0.0 0.0 -17.3304 60.9937 6.8709 0.0000 -0.0000 0.0000 -9.2147 -22.7832 40.7011 -46.1944 -51.3404 -23.1677 -2.1629 7.8284 -20.2087 0.0 0.0 0.0 7.1250 0.0 -0.0 16.7584 10.4022 14.0897
17.5515 13.0617 9.8575 135.1960 -85.9365 -158.3810 0.0000 0.0000 0.0000 -8.3757 -2.1771 -48.7670 13.3709 18.9120 70.2735 -0.1700 -7.3111 2.0800 0.0105 -0.6618 -1.8186 0.0000 0.0000 0.0000 3.8118 9.1570 -47.0162 -11.8401 -18.3223 65.4812 -0.0249 -1.5022 2.8376 -0.1995 2.8758 -7.9332 -0.6203 4.2542 27.3501 2.1420 3.8131 14.5975 1.7001 1.1178 1.0251 -4.5657 6.4827 -22.0090 -4.0675 11.1414 16.6358 0.8612 4.4181 8.8249 0.0000 0.0000 0.0000 0.3952 -25.7043 -56.4428 41.8466 -49.1267 19.8245 17.2525 25.9329 -30.8621 0.0 0.0 0.0 -7.1250 0.0 0.0 -16.8882 61.2242 6.7823 0.0000 0.0000 0.0000 -9.5566 -22.8389 40.5034 -46.0984 -51.2954 -23.0928 -2.0212 7.2767 -20.1349 0.0 0.0 0.0 7.1250 0.0 -0.0 16.8499 10.4807 14.1459
17.5488 13.0587 9.8586 137.0910 -86.0861 -160.2780 0.0000 0.0000 0.0000 -8.1755 -2.2263 -48.8175 13.3902 18.9186 70.3332 -0.1670 -7.2303 2.3809 0.0109 -0.6755 -1.8564 0.0000 0.0000 0.0000 4.1063 8.8528 -47.1054 -11.8363 -18.3206 65.4689 -0.0282 -1.3160 2.9879 -0.2963 3.5001 -9.6744 -0.4365 4.2045 27.3248 2.1254 3.7950 14.5832 1.5836 1.1219 1.0344 -4.6683 6.4223 -22.2689 -3.6850 11.0541 16.9561 1.0087 4.3944 8.9478 0.0000 0.0000 0.0000 0.5281 -25.7263 -56.4083 41.8084 -49.1055 19.7956 17.355 25.9047 -30.6672 0.0 0.0 0.0 -7.1250 0.0 0.0 -16.6298 61.0627 6.6114 0.0000 0.0000 0.0000 -9.6919 -22.9135 40.7487 -46.2287 -51.3564 -23.1945 -1.8529 6.0899 -19.9985 0.0 0.0 0.0 7.1250 0.0 -0.0 16.9609 10.6202 14.1978
17.5467 13.0558 9.8549 138.6250 -86.0782 -161.8950 0.0000 0.0000 0.0000 -8.0673 -2.0892 -48.7698 13.3975 18.9210 70.3557 -0.1673 -7.2313 2.6263 0.0189 -0.8887 -2.4425 0.0000 0.0000 0.0000 4.2819 8.7260 -47.0617 -11.8312 -18.3184 65.4526 -0.0308 -1.2073 3.1130 -0.3179 3.6241 -10.0214 -0.4857 4.1907 27.3330 2.0973 3.7658 14.5641 1.5876 1.1054 1.0083 -4.6262 6.5473 -22.1587 -3.6031 11.1844 16.9277 1.0424 4.4726 8.9139 0.0000 0.0000 0.0000 0.6926 -25.6256 -56.1693 41.8009 -49.1014 19.7899 17.2218 25.8173 -30.729 0.0 0.0 0.0 -7.1250 0.0 0.0 -16.8217 61.0894 6.7008 0.0000 0.0000 0.0000 -9.6324 -22.8953 41.197 -46.2944 -51.3871 -23.2458 -1.8623 5.0855 -19.5344 0.0 0.0 0.0 7.1250 0.0 -0.0 16.9777 11.0635 14.0517
17.5474 13.0600 9.8486 138.3780 -85.9309 -161.8100 0.0000 0.0000 0.0000 -8.1545 -1.8535 -48.5683 13.3804 18.9152 70.3030 -0.1739 -7.3773 2.4224 0.0223 -0.9630 -2.6471 0.0000 0.0000 0.0000 4.2662 8.8784 -46.8277 -11.8164 -18.3120 65.4058 -0.0310 -1.2613 3.1248 -0.3115 3.5880 -9.9203 -0.8257 4.2708 27.3969 2.1209 3.7855 14.5650 1.7978 1.0912 0.9554 -4.1554 6.7302 -21.9793 -4.1930 11.3958 16.8409 0.7966 4.5384 8.9207 0.0000 0.0000 0.0000 0.6486 -25.5047 -55.9644 41.7512 -49.0739 19.7524 17.1616 25.7567 -30.8909 0.0 0.0 0.0 -7.1250 0.0 0.0 -17.0096 61.2294 6.8348 0.0000 0.0000 0.0000 -9.9216 -22.9841 41.6753 -46.3272 -51.4023 -23.2714 -1.9184 3.9684 -18.6789 0.0 0.0 0.0 7.1250 0.0 -0.0 16.9870 11.8789 13.7605
17.5458 13.0595 9.8432 138.9700 -85.8491 -162.5210 0.0000 0.0000 0.0000 -8.1417 -1.6984 -48.4477 13.3755 18.9136 70.2879 -0.1799 -7.5213 2.1211 0.0252 -1.0256 -2.8193 0.0000 0.0000 0.0000 4.3516 8.8326 -46.7346 -11.8199 -18.3135 65.4170 -0.0304 -1.1524 3.0949 -0.3405 3.7499 -10.3741 -1.0047 4.3537 27.4825 2.1461 3.8459 14.5640 1.9075 1.1077 0.8995 -3.3371 6.8533 -22.0161 -5.0656 11.5093 16.9247 0.4037 4.5322 9.0667 0.0000 -0.0000 0.0000 0.6019 -25.4863 -55.963 41.6600 -49.0232 19.6835 17.0663 25.7841 -31.3057 0.0 0.0 0.0 -7.1250 0.0 0.0 -17.4342 61.6015 7.1653 0.0000 -0.0000 0.0000 -10.3207 -23.1537 41.9705 -46.3746 -51.4244 -23.3085 -2.0967 2.7765 -18.0432 0.0 0.0 0.0 7.1250 0.0 -0.0 16.9095 12.4783 13.4704
17.5541 13.0705 9.8400 140.2590 -85.8367 -163.8900 0.0000 0.0000 0.0000 -8.0951 -1.4714 -48.3534 13.3427 18.9024 70.1867 -0.1863 -7.6452 2.2552 0.0410 -1.3073 -3.5949 0.0000 0.0000 0.0000 4.3865 9.4821 -46.3637 -11.7953 -18.3028 65.3386 -0.0249 -1.6627 2.8607 -0.3893 4.0067 -11.0957 -0.7854 4.3516 27.5081 2.0466 3.8899 14.5658 1.6630 1.1472 0.9099 -2.8410 6.8185 -22.1978 -5.4268 11.4194 17.1784 0.2074 4.4600 9.2406 0.0000 0.0000 0.0000 0.7809 -25.4831 -56.0957 41.6379 -49.0109 19.6668 16.9068 25.7567 -31.5311 0.0 0.0 0.0 -7.1250 0.0 0.0 -17.7881 61.776 7.3895 0.0000 0.0000 0.0000 -10.0756 -23.3238 41.6873 -46.1592 -51.3239 -23.1402 -1.769 2.6572 -17.8107 0.0 0.0 0.0 7.1250 0.0 -0.0 17.1313 12.7158 13.5755
17.5474 13.0557 9.8410 138.9680 -85.7864 -162.6340 0.0000 0.0000 0.0000 -8.2218 -1.2523 -48.4688 13.3704 18.9118 70.2721 -0.1912 -7.7326 2.4941 0.0428 -1.3360 -3.6737 0.0000 0.0000 0.0000 4.3552 8.9193 -46.6369 -11.8318 -18.3186 65.4547 -0.0297 -1.1042 3.0592 -0.3759 3.9378 -10.9017 -0.7288 4.3736 27.5425 1.9348 3.9351 14.5246 1.4955 1.1818 0.8575 -2.7220 6.7526 -22.2151 -5.4471 11.3093 17.3176 0.1701 4.4064 9.2989 -0.0000 0.0000 0.0000 0.8616 -25.4463 -56.2338 41.5432 -48.958 19.5953 16.8988 25.7158 -31.3643 0.0 0.0 0.0 -7.1250 0.0 0.0 -17.6643 61.6157 7.2691 -0.0000 0.0000 0.0000 -9.7933 -23.3657 41.2681 -46.1158 -51.3035 -23.1063 -1.0272 2.7357 -17.2958 0.0 0.0 0.0 7.1250 0.0 -0.0 17.6364 13.239 13.8138
17.5538 13.0611 9.8447 136.6070 -85.7543 -160.2360 0.0000 0.0000 0.0000 -8.4414 -1.2670 -48.4841 13.3577 18.9075 70.2329 -0.1978 -7.8615 2.6317 0.0599 -1.5786 -4.3425 0.0000 0.0000 0.0000 4.0727 9.4069 -46.4818 -11.8258 -18.3160 65.4355 -0.0263 -1.5326 2.9115 -0.3885 4.0024 -11.0834 -0.9606 4.4272 27.5431 1.9603 3.9656 14.4450 1.6439 1.1893 0.7475 -2.9119 6.7574 -22.1319 -5.3951 11.3637 17.3786 0.2224 4.4232 9.2925 0.0000 0.0000 0.0000 0.6095 -25.3994 -56.239 41.3477 -48.8484 19.448 16.959 25.8448 -31.273 0.0 0.0 0.0 -7.1250 0.0 0.0 -17.5264 61.5439 7.1805 0.0000 0.0000 0.0000 -10.0332 -23.2829 41.2205 -46.3304 -51.4038 -23.2739 -0.8905 2.1049 -16.7751 0.0 0.0 0.0 7.1250 0.0 -0.0 17.7600 13.7404 13.7227
17.5439 13.0453 9.8445 134.8590 -85.7384 -158.5050 0.0000 0.0000 0.0000 -8.5481 -1.3191 -48.5461 13.3947 18.9201 70.3471 -0.2079 -8.0602 2.6381 0.0900 -1.9352 -5.3267 0.0000 0.0000 0.0000 4.0384 8.7424 -46.7762 -11.8672 -18.3340 65.5673 -0.0298 -0.9685 3.0647 -0.4214 4.1667 -11.5460 -1.1830 4.4858 27.5154 2.0185 3.9918 14.4574 1.8271 1.1869 0.7538 -3.2986 6.5858 -22.3415 -5.1268 11.2167 17.5543 0.3601 4.3459 9.3488 -0.0000 0.0000 0.0000 0.3 -25.4999 -56.1343 41.1527 -48.7382 19.3013 16.7228 25.9222 -31.1551 0.0 0.0 0.0 -7.1250 0.0 0.0 -17.6926 61.3734 7.1794 -0.0000 0.0000 0.0000 -10.0829 -23.397 41.259 -46.2965 -51.388 -23.2475 -0.9155 1.5346 -16.0893 0.0 0.0 0.0 7.1250 0.0 -0.0 17.7943 14.3925 13.4918
17.5491 13.0471 9.8421 136.0240 -85.7702 -159.7040 0.0000 0.0000 0.0000 -8.4384 -1.3028 -48.5167 13.3924 18.9193 70.3401 -0.2062 -8.0284 2.6024 0.0844 -1.8739 -5.1572 0.0000 0.0000 0.0000 4.1061 8.9807 -46.6562 -11.8633 -18.3322 65.5547 -0.0292 -1.2313 3.0349 -0.3914 4.0172 -11.1250 -1.3842 4.5454 27.4519 2.2300 4.0174 14.5348 2.1684 1.1725 0.8411 -3.4554 6.3952 -22.3112 -5.1821 11.0001 17.4000 0.3301 4.2362 9.2838 0.0000 -0.0000 0.0000 -0.0602 -25.6867 -55.9364 41.0149 -48.6598 19.1978 16.4975 25.9605 -31.0684 0.0 0.0 0.0 -7.1250 0.0 0.0 -17.8709 61.2357 7.1959 0.0000 -0.0000 0.0000 -10.3091 -23.6287 41.54 -46.3011 -51.3902 -23.2511 -0.9384 0.946 -14.9647 0.0 0.0 0.0 7.1250 0.0 -0.0 17.8680 15.4623 13.1207
17.5521 13.0475 9.8405 139.5830 -85.8649 -163.2250 0.0000 0.0000 0.0000 -8.0964 -1.3084 -48.5923 13.4041 18.9232 70.3761 -0.2089 -8.0826 2.5423 0.1026 -2.0654 -5.6864 0.0000 0.0000 0.0000 4.3909 9.1050 -46.6845 -11.8707 -18.3354 65.5783 -0.0284 -1.3716 3.0047 -0.3638 3.8748 -10.7247 -1.4022 4.5278 27.3587 2.4345 3.9983 14.5364 2.4097 1.1522 0.8703 -4.3945 6.1324 -22.9660 -4.3435 10.8345 17.8570 0.7613 4.1568 9.4493 0.0000 -0.0000 0.0000 -0.269 -25.7363 -55.7383 40.9129 -48.6016 19.1213 16.7723 26.0997 -31.0996 0.0 0.0 0.0 -7.1250 0.0 0.0 -17.5955 61.3328 7.1217 0.0000 -0.0000 0.0000 -10.6988 -23.8384 41.8832 -46.3565 -51.416 -23.2943 -0.2912 0.3866 -13.934 0.0 0.0 0.0 7.1250 0.0 -0.0 18.3807 16.4602 13.1187
17.5554 13.0481 9.8392 140.9010 -85.9169 -164.5280 0.0000 0.0000 0.0000 -7.9672 -1.2855 -48.6411 13.4018 18.9225 70.3691 -0.2059 -8.0290 2.4666 0.0682 -1.6848 -4.6353 0.0000 0.0000 0.0000 4.4954 9.1636 -46.7132 -11.8695 -18.3349 65.5746 -0.0285 -1.4740 3.0177 -0.3360 3.7249 -10.3039 -1.2047 4.5034 27.3252 2.3741 4.0189 14.5029 2.2274 1.1805 0.8637 -4.5598 5.9692 -22.9986 -3.9756 10.5818 17.8263 0.8749 4.0768 9.4098 -0.0000 0.0000 0.0000 -0.1159 -25.7667 -55.8564 40.8046 -48.5394 19.04 17.1006 26.1685 -31.1497 0.0 0.0 0.0 -7.1250 0.0 0.0 -17.2749 61.4614 7.0402 -0.0000 0.0000 0.0000 -10.5171 -24.0954 41.6391 -46.1758 -51.3317 -23.1532 1.6986 0.2057 -13.4625 0.0 0.0 0.0 7.1250 0.0 -0.0 19.7285 16.9469 13.9814
17.5567 13.0481 9.8378 141.7790 -85.9882 -165.3920 0.0000 0.0000 0.0000 -7.8626 -1.3690 -48.6544 13.4024 18.9226 70.3706 -0.1949 -7.8102 2.4584 0.0194 -0.8998 -2.4731 0.0000 0.0000 0.0000 4.5639 9.2202 -46.6632 -11.8561 -18.3292 65.5321 -0.0288 -1.5367 3.0385 -0.3355 3.7224 -10.2969 -0.9049 4.5919 27.3249 2.5334 4.2268 14.4088 2.1743 1.3059 0.7555 -4.7523 5.6863 -22.3145 -4.3337 10.2512 17.4645 0.7076 3.8986 9.1813 -0.0000 0.0000 0.0000 -0.5473 -25.657 -56.5755 40.6638 -48.4583 18.9346 17.3728 26.3135 -31.3047 0.0 0.0 0.0 -7.1250 0.0 0.0 -17.0966 61.6768 7.0525 -0.0000 0.0000 0.0000 -10.8498 -24.0323 40.8673 -46.2226 -51.3536 -23.1897 3.0773 -0.3624 -13.1069 0.0 0.0 0.0 7.1250 0.0 -0.0 20.6651 17.298 14.5705
17.5565 13.0498 9.8387 144.6230 -86.0982 -168.1930 0.0000 0.0000 0.0000 -7.6003 -1.5092 -48.6796 13.4079 18.9245 70.3876 -0.1992 -7.8933 2.5252 0.0363 -1.2304 -3.3831 0.0000 0.0000 0.0000 4.8139 9.2216 -46.6222 -11.8393 -18.3219 65.4787 -0.0297 -1.4539 3.0763 -0.4322 4.2189 -11.6933 -0.5312 4.6316 27.3335 2.7705 4.3942 14.2834 2.1731 1.4122 0.6102 -4.7976 5.4859 -21.6726 -4.9691 10.0460 17.1330 0.4475 3.7524 8.9964 0.0000 0.0000 0.0000 -1.0676 -25.4366 -57.1908 40.5990 -48.4208 18.8861 17.6068 26.4421 -31.4733 0.0 0.0 0.0 -7.1250 0.0 0.0 -16.9706 61.8961 7.087 0.0000 0.0000 0.0000 -11.2111 -23.9348 40.3795 -46.3765 -51.4253 -23.31 3.4026 -1.4237 -12.0679 0.0 0.0 0.0 7.1250 0.0 -0.0 21.0042 18.2728 14.357
17.5598 13.0538 9.8404 147.7520 -86.2031 -171.3130 0.0000 0.0000 0.0000 -7.3578 -1.5015 -48.7205 13.4196 18.9285 70.4238 -0.2144 -8.1879 2.5803 0.0878 -1.9113 -5.2606 0.0000 0.0000 0.0000 5.0556 9.3599 -46.5229 -11.8369 -18.3208 65.4709 -0.0283 -1.6334 3.0288 -0.4789 4.4378 -12.3116 -0.4832 4.3985 27.2949 2.6122 4.0995 14.2656 2.0523 1.2720 0.6357 -4.1292 5.7616 -22.0281 -5.0868 10.2875 17.2988 0.3529 3.8799 9.1553 0.0000 0.0000 0.0000 -0.4635 -25.4152 -56.408 40.6506 -48.4507 18.9247 17.3999 26.2441 -31.5393 0.0 0.0 0.0 -7.1250 0.0 0.0 -17.2515 61.9071 7.2125 0.0000 0.0000 0.0000 -10.7869 -24.3589 41.3575 -46.4943 -51.4799 -23.4022 3.9083 -2.6848 -11.237 0.0 0.0 0.0 7.1250 0.0 -0.0 21.4446 19.05 14.3031
